<svg width="52" height="47" viewBox="0 0 52 47" fill="none" xmlns="http://www.w3.org/2000/svg">
<path fill-rule="evenodd" clip-rule="evenodd" d="M50.8575 18.5043C49.1444 25.8649 39.7498 27.4829 39.2489 27.3753C38.7551 27.2655 31.0026 21.8631 32.7145 14.5026C33.343 11.8043 35.8854 10.0682 38.3888 10.6189C40.8875 11.1719 42.1257 15.031 42.1257 15.031C42.1257 15.031 44.9516 12.0685 47.4609 12.6203C49.9655 13.1745 51.4884 15.8073 50.8575 18.5043ZM24.916 45.9977C24.4482 46.0772 15.8144 44.1377 14.5999 37.219C14.1557 34.6833 15.7057 32.3124 18.0591 31.9161C20.4148 31.5209 22.8852 34.405 22.8852 34.405C22.8852 34.405 24.2331 30.8779 26.5865 30.4816C28.9399 30.0864 31.207 31.8179 31.6489 34.3524C32.8586 41.2687 25.3815 45.9217 24.916 45.9977ZM15.1268 21.6679C14.5113 21.7906 3.02322 19.5612 1.13887 10.4681C0.448923 7.13735 2.39707 3.94341 5.4912 3.32848C8.58532 2.7112 11.9689 6.42888 11.9689 6.42888C11.9689 6.42888 13.6004 1.71865 16.6969 1.10254C19.7875 0.488773 22.8556 2.69366 23.5503 6.02087C25.4287 15.1105 15.7423 21.5475 15.1268 21.6679Z" fill="#F1BAC5" stroke="#D2566E" stroke-width="2"/>
</svg>
