{
	"asset":{
		"version":"2.0",
		"generator":""
	},
	"scenes":[{
		"nodes":[0]
	}],
	"samplers":[{
		"magFilter":9729,
		"minFilter":9729,
		"wrapS":10497,
		"wrapT":10497
	},
	{
		"magFilter":9729,
		"minFilter":9729,
		"wrapS":10497,
		"wrapT":10497
	}],
	"nodes":[{
		"name":"HEART.obj",
		"children":[1]
	},
	{
		"name":"Heart_Remesh",
		"mesh":0
	}],
	"meshes":[{
		"name":"Heart_Remesh",
		"primitives":[{
			"attributes":{
				"POSITION":1,
				"NORMAL":2,
				"TEXCOORD_0":3
			},
			"indices":0,
			"material":0
		}]
	}],
	"accessors":[{
		"bufferView":0,
		"type":"SCALAR",
		"componentType":5123,
		"count":21168,
		"byteOffset":0,
		"min":[0],
		"max":[3708]
	},
	{
		"bufferView":1,
		"type":"VEC3",
		"componentType":5126,
		"count":3709,
		"byteOffset":0,
		"min":[-0.06946279108524323,
		-0.033033471554517749,
		-0.10284602642059326],
		"max":[0.05221382901072502,
		0.07264147698879242,
		-0.013095599599182606]
	},
	{
		"bufferView":1,
		"type":"VEC3",
		"componentType":5126,
		"count":3709,
		"byteOffset":12,
		"min":[-0.9982016086578369,
		-1.0,
		-0.9997642040252686],
		"max":[0.9982016086578369,
		1.0,
		0.9997642040252686]
	},
	{
		"bufferView":1,
		"type":"VEC2",
		"componentType":5126,
		"count":3709,
		"byteOffset":24,
		"min":[0.0023129999171942474,
		0.0023129996843636038],
		"max":[0.9976869821548462,
		0.42499297857284548]
	}],
	"bufferViews":[{
		"buffer":0,
		"byteOffset":0,
		"byteLength":42336,
		"target":34963
	},
	{
		"buffer":0,
		"byteStride":32,
		"byteOffset":42336,
		"byteLength":118688,
		"target":34962
	}],
	"buffers":[{
		"uri":"data:application/octet-stream;base64,",
		"byteLength":161024
	}],
	"images":[{
		"uri":"data:image/png;base64,"
	},
	{
		"uri":"data:image/png;base64,"
	}],
	"textures":[{
		"sampler":0,
		"source":0
	},
	{
		"sampler":1,
		"source":1
	}],
	"materials":[{
		"name":"Mat",
		"pbrMetallicRoughness":{
			"baseColorTexture":{
				"index":0
			},
			"baseColorFactor":[1.0,
			1.0,
			1.0,
			1.0],
			"metallicRoughnessTexture":{
				"index":1
			},
			"metallicFactor":0.0,
			"roughnessFactor":1.0
		},
		"emissiveFactor":[0.0,
		0.0,
		0.0],
		"alphaMode":"OPAQUE",
		"doubleSided":false
	}]
}